<svg width="70" height="70" viewBox="0 0 70 70" fill="none" xmlns="http://www.w3.org/2000/svg">
<path d="M59.5493 33.6522L36.6401 2.84432C36.4453 2.58131 36.1964 2.3686 35.9122 2.22231C35.628 2.07602 35.3161 2 35 2C34.6839 2 34.372 2.07602 34.0878 2.22231C33.8036 2.3686 33.5547 2.58131 33.3599 2.84432L10.4507 33.6522C10.1591 34.0338 10 34.5095 10 35C10 35.4905 10.1591 35.9662 10.4507 36.3478L33.3599 67.1557C33.5547 67.4187 33.8036 67.6314 34.0878 67.7777C34.372 67.924 34.6839 68 35 68C35.3161 68 35.628 67.924 35.9122 67.7777C36.1964 67.6314 36.4453 67.4187 36.6401 67.1557L59.5493 36.3478C59.8409 35.9662 60 35.4905 60 35C60 34.5095 59.8409 34.0338 59.5493 33.6522ZM37.0827 42.5919V10.5463L54.629 34.1473L37.0827 42.5919ZM32.9173 42.5919L15.371 34.1473L32.9173 10.5463V42.5919ZM32.9173 47.4332V59.4537L19.0156 40.749L32.9173 47.4332Z" fill="white"/>
</svg>
